<?xml version="1.0" encoding="UTF-8" standalone="no"?>
<!DOCTYPE svg PUBLIC "-//W3C//DTD SVG 1.1//EN" "http://www.w3.org/Graphics/SVG/1.1/DTD/svg11.dtd">
<svg width="100%" height="100%" viewBox="0 0 1000 1000" version="1.1" xmlns="http://www.w3.org/2000/svg" xmlns:xlink="http://www.w3.org/1999/xlink" xml:space="preserve" xmlns:serif="http://www.serif.com/" style="fill-rule:evenodd;clip-rule:evenodd;stroke-linejoin:round;stroke-miterlimit:2;">
    <circle cx="500" cy="500" r="500" style="fill:white;"/>
    <g transform="matrix(0.629542,0,0,0.629542,-263.987,-230.496)">
        <path d="M1213.56,1740.43C1213.56,1740.43 1168.31,1739.83 1153.46,1738.44C1137.51,1736.95 1128.42,1721.15 1125.68,1708.2C1121.13,1686.64 1108.02,1617.83 1108.02,1617.83L1028.86,1592.95C1028.86,1592.95 959.365,1642.81 955.405,1643.5C924.31,1648.92 920.215,1641.21 916.501,1639.67C912.787,1638.13 837.639,1560.52 835.764,1558.06C833.329,1554.86 827.753,1534.79 838.02,1518.96C848.216,1503.24 890.591,1439.82 890.591,1439.82C890.591,1439.82 865.199,1375.37 865.92,1372.71L773.89,1360.47C759.59,1360.22 740.467,1345.32 739.995,1326.22C738.567,1268.43 741.505,1245.55 770.67,1236.97C781.31,1233.84 891.828,1243.77 1001.55,1251.19C1043.2,1254.01 1023.75,1345 1076.52,1395.14C1143.66,1458.93 1213.56,1456.89 1213.56,1456.89C1213.56,1456.89 1283.46,1458.93 1350.6,1395.14C1403.37,1345 1383.92,1254.01 1425.56,1251.19C1535.29,1243.77 1645.81,1233.84 1656.45,1236.97C1685.61,1245.55 1688.55,1268.43 1687.12,1326.22C1686.65,1345.32 1667.53,1360.22 1653.23,1360.47L1561.2,1372.71C1561.92,1375.37 1536.53,1439.82 1536.53,1439.82C1536.53,1439.82 1578.9,1503.24 1589.1,1518.96C1599.37,1534.79 1593.79,1554.86 1591.35,1558.06C1589.48,1560.52 1514.33,1638.13 1510.62,1639.67C1506.9,1641.21 1502.81,1648.92 1471.71,1643.5C1467.75,1642.81 1398.26,1592.95 1398.26,1592.95L1319.1,1617.83C1319.1,1617.83 1305.99,1686.64 1301.44,1708.2C1298.7,1721.15 1289.6,1736.95 1273.66,1738.44C1258.81,1739.83 1213.56,1740.43 1213.56,1740.43Z" style="fill:url(#_Linear1);"/>
    </g>
    <g transform="matrix(0.629542,0,0,0.629542,-1017.08,-712.984)">
        <path d="M2521.83,1437.36C2524.83,1440.26 2527.98,1442.46 2531.26,1443.63C2603.83,1469.55 2707.28,1559.65 2734.83,1620.6C2777.89,1715.84 2769.54,1801.04 2806.04,1814.2C2823.65,1820.55 2838.9,1822.39 2850.34,1836.08C2861.79,1849.76 2856.66,1871.03 2857.01,1885.29C2857.41,1901.1 2849.77,1930.08 2814.36,1942.54C2802.93,1946.57 2708.46,1964.26 2614.68,1979.81C2510.87,1997.03 2478.93,2006.57 2409.91,2006.57C2409.88,2006.57 2409.85,2006.57 2409.82,2006.57C2409.78,2006.57 2409.75,2006.57 2409.72,2006.57C2340.7,2006.57 2308.76,1997.03 2204.95,1979.81C2111.17,1964.26 2016.7,1946.57 2005.27,1942.54C1969.86,1930.08 1962.22,1901.1 1962.62,1885.29C1962.97,1871.03 1957.84,1849.76 1969.29,1836.08C1980.73,1822.39 1995.98,1820.55 2013.59,1814.2C2050.09,1801.04 2041.74,1715.84 2084.8,1620.6C2112.35,1559.65 2215.8,1469.55 2288.38,1443.63C2291.65,1442.46 2294.8,1440.26 2297.8,1437.36L2297.8,1610.93C2297.8,1663.93 2340.76,1706.89 2393.76,1706.89L2425.87,1706.89C2478.87,1706.89 2521.83,1663.93 2521.83,1610.93L2521.83,1437.36Z" style="fill:url(#_Linear2);"/>
    </g>
    <g transform="matrix(0.621357,0,0,0.497432,-1008.47,-542.686)">
        <path d="M2526.55,1485.47C2526.55,1417.29 2482.3,1362.02 2427.71,1362.02C2427.71,1362.02 2427.71,1362.02 2427.71,1362.02C2373.13,1362.02 2328.88,1417.29 2328.88,1485.47C2328.88,1544.91 2328.88,1616 2328.88,1675.44C2328.88,1743.62 2373.13,1798.89 2427.71,1798.89C2427.71,1798.89 2427.71,1798.89 2427.71,1798.89C2482.3,1798.89 2526.55,1743.62 2526.55,1675.44C2526.55,1616 2526.55,1544.91 2526.55,1485.47Z" style="fill:url(#_Linear3);"/>
    </g>
    <defs>
        <linearGradient id="_Linear1" x1="0" y1="0" x2="1" y2="0" gradientUnits="userSpaceOnUse" gradientTransform="matrix(-597.761,-1021.1,1021.1,-597.761,1577.72,1740.43)"><stop offset="0" style="stop-color:rgb(42,140,207);stop-opacity:1"/><stop offset="0.44" style="stop-color:rgb(42,131,190);stop-opacity:1"/><stop offset="1" style="stop-color:rgb(41,111,151);stop-opacity:1"/></linearGradient>
        <linearGradient id="_Linear2" x1="0" y1="0" x2="1" y2="0" gradientUnits="userSpaceOnUse" gradientTransform="matrix(-597.761,-1021.1,1021.1,-597.761,2773.97,2506.84)"><stop offset="0" style="stop-color:rgb(42,140,207);stop-opacity:1"/><stop offset="0.44" style="stop-color:rgb(42,131,190);stop-opacity:1"/><stop offset="1" style="stop-color:rgb(41,111,151);stop-opacity:1"/></linearGradient>
        <linearGradient id="_Linear3" x1="0" y1="0" x2="1" y2="0" gradientUnits="userSpaceOnUse" gradientTransform="matrix(-605.636,-1292.28,1034.55,-756.518,2796.67,2830.26)"><stop offset="0" style="stop-color:rgb(42,140,207);stop-opacity:1"/><stop offset="0.44" style="stop-color:rgb(42,131,190);stop-opacity:1"/><stop offset="1" style="stop-color:rgb(41,111,151);stop-opacity:1"/></linearGradient>
    </defs>
</svg>
